<mxfile host="Electron" modified="2023-10-01T16:34:43.642Z" agent="Mozilla/5.0 (X11; Linux x86_64) AppleWebKit/537.36 (KHTML, like Gecko) draw.io/21.7.5 Chrome/114.0.5735.289 Electron/25.8.1 Safari/537.36" etag="g9rNfgJcyarL2c-eRNRt" version="21.7.5" type="device" pages="3">
  <diagram name="Setup" id="nHNN9kYv4ZJZIniju8xP">
    <mxGraphModel dx="759" dy="646" grid="1" gridSize="10" guides="1" tooltips="1" connect="1" arrows="1" fold="1" page="1" pageScale="1" pageWidth="850" pageHeight="1100" math="0" shadow="0">
      <root>
        <mxCell id="0" />
        <mxCell id="1" value="Diagram" parent="0" />
        <mxCell id="0RE_oMzP8fbVJ8ozOd8--1" value="change M3" style="rounded=1;whiteSpace=wrap;container=0;dropTarget=0;recursiveResize=0;fillColor=#dae8fc;strokeColor=#6c8ebf;verticalAlign=bottom;spacingBottom=9;fontSize=14;" parent="1" vertex="1">
          <mxGeometry x="280" y="200" width="120" height="50" as="geometry" />
        </mxCell>
        <mxCell id="0RE_oMzP8fbVJ8ozOd8--2" value="9736c44" style="text;strokeColor=none;fillColor=none;align=center;verticalAlign=middle;whiteSpace=wrap;rounded=0;collapsible=0;fontFamily=Courier New;fontSize=11;" parent="0RE_oMzP8fbVJ8ozOd8--1" vertex="1">
          <mxGeometry width="60" height="20" as="geometry" />
        </mxCell>
        <mxCell id="OXiyiAeiQRmuAnSlS-TD-4" value="" style="edgeStyle=orthogonalEdgeStyle;rounded=0;orthogonalLoop=1;jettySize=auto;entryX=0.5;entryY=1;entryDx=0;entryDy=0;" edge="1" parent="1" source="OXiyiAeiQRmuAnSlS-TD-1" target="0RE_oMzP8fbVJ8ozOd8--1">
          <mxGeometry relative="1" as="geometry" />
        </mxCell>
        <mxCell id="OXiyiAeiQRmuAnSlS-TD-16" value="" style="edgeStyle=orthogonalEdgeStyle;orthogonalLoop=1;jettySize=auto;entryX=0.5;entryY=1;entryDx=0;entryDy=0;curved=1;exitX=1;exitY=0;exitDx=0;exitDy=0;" edge="1" parent="1" source="OXiyiAeiQRmuAnSlS-TD-2" target="OXiyiAeiQRmuAnSlS-TD-12">
          <mxGeometry relative="1" as="geometry" />
        </mxCell>
        <mxCell id="OXiyiAeiQRmuAnSlS-TD-1" value="change M2" style="rounded=1;whiteSpace=wrap;container=0;dropTarget=0;recursiveResize=0;fillColor=#dae8fc;strokeColor=#6c8ebf;verticalAlign=bottom;spacingBottom=9;fontSize=14;" vertex="1" parent="1">
          <mxGeometry x="280" y="580" width="120" height="50" as="geometry" />
        </mxCell>
        <mxCell id="OXiyiAeiQRmuAnSlS-TD-2" value="4092a25" style="text;strokeColor=none;fillColor=none;align=center;verticalAlign=middle;whiteSpace=wrap;rounded=0;collapsible=0;fontFamily=Courier New;fontSize=11;" vertex="1" parent="OXiyiAeiQRmuAnSlS-TD-1">
          <mxGeometry width="60" height="20" as="geometry" />
        </mxCell>
        <mxCell id="OXiyiAeiQRmuAnSlS-TD-7" value="" style="edgeStyle=orthogonalEdgeStyle;orthogonalLoop=1;jettySize=auto;entryX=0.5;entryY=1;entryDx=0;entryDy=0;curved=1;" edge="1" parent="1" source="OXiyiAeiQRmuAnSlS-TD-5" target="OXiyiAeiQRmuAnSlS-TD-1">
          <mxGeometry relative="1" as="geometry" />
        </mxCell>
        <mxCell id="OXiyiAeiQRmuAnSlS-TD-5" value="change M1" style="rounded=1;whiteSpace=wrap;container=0;dropTarget=0;recursiveResize=0;fillColor=#dae8fc;strokeColor=#6c8ebf;verticalAlign=bottom;spacingBottom=9;fontSize=14;" vertex="1" parent="1">
          <mxGeometry x="280" y="660" width="120" height="50" as="geometry" />
        </mxCell>
        <mxCell id="OXiyiAeiQRmuAnSlS-TD-6" value="e4908ea" style="text;strokeColor=none;fillColor=none;align=center;verticalAlign=middle;whiteSpace=wrap;rounded=0;collapsible=0;fontFamily=Courier New;fontSize=11;" vertex="1" parent="OXiyiAeiQRmuAnSlS-TD-5">
          <mxGeometry width="60" height="20" as="geometry" />
        </mxCell>
        <mxCell id="OXiyiAeiQRmuAnSlS-TD-8" value="change B1" style="rounded=1;whiteSpace=wrap;container=0;dropTarget=0;recursiveResize=0;fillColor=#dae8fc;strokeColor=#6c8ebf;verticalAlign=bottom;spacingBottom=9;fontSize=14;" vertex="1" parent="1">
          <mxGeometry x="430" y="280" width="120" height="50" as="geometry" />
        </mxCell>
        <mxCell id="OXiyiAeiQRmuAnSlS-TD-9" value="5915f8f" style="text;strokeColor=none;fillColor=none;align=center;verticalAlign=middle;whiteSpace=wrap;rounded=0;collapsible=0;fontFamily=Courier New;fontSize=11;" vertex="1" parent="OXiyiAeiQRmuAnSlS-TD-8">
          <mxGeometry width="60" height="20" as="geometry" />
        </mxCell>
        <mxCell id="OXiyiAeiQRmuAnSlS-TD-15" value="" style="edgeStyle=orthogonalEdgeStyle;orthogonalLoop=1;jettySize=auto;entryX=0.5;entryY=1;entryDx=0;entryDy=0;curved=1;" edge="1" parent="1" source="OXiyiAeiQRmuAnSlS-TD-10" target="OXiyiAeiQRmuAnSlS-TD-8">
          <mxGeometry relative="1" as="geometry" />
        </mxCell>
        <mxCell id="OXiyiAeiQRmuAnSlS-TD-10" value="change A2" style="rounded=1;whiteSpace=wrap;container=0;dropTarget=0;recursiveResize=0;fillColor=#dae8fc;strokeColor=#6c8ebf;verticalAlign=bottom;spacingBottom=9;fontSize=14;" vertex="1" parent="1">
          <mxGeometry x="430" y="360" width="120" height="50" as="geometry" />
        </mxCell>
        <mxCell id="OXiyiAeiQRmuAnSlS-TD-11" value="276c0a2" style="text;strokeColor=none;fillColor=none;align=center;verticalAlign=middle;whiteSpace=wrap;rounded=0;collapsible=0;fontFamily=Courier New;fontSize=11;" vertex="1" parent="OXiyiAeiQRmuAnSlS-TD-10">
          <mxGeometry y="1" width="60" height="20" as="geometry" />
        </mxCell>
        <mxCell id="OXiyiAeiQRmuAnSlS-TD-14" value="" style="edgeStyle=orthogonalEdgeStyle;orthogonalLoop=1;jettySize=auto;entryX=0.5;entryY=1;entryDx=0;entryDy=0;curved=1;" edge="1" parent="1" source="OXiyiAeiQRmuAnSlS-TD-12" target="OXiyiAeiQRmuAnSlS-TD-10">
          <mxGeometry relative="1" as="geometry" />
        </mxCell>
        <mxCell id="OXiyiAeiQRmuAnSlS-TD-12" value="change A1" style="rounded=1;whiteSpace=wrap;container=0;dropTarget=0;recursiveResize=0;fillColor=#dae8fc;strokeColor=#6c8ebf;verticalAlign=bottom;spacingBottom=9;fontSize=14;" vertex="1" parent="1">
          <mxGeometry x="430" y="440" width="120" height="50" as="geometry" />
        </mxCell>
        <mxCell id="OXiyiAeiQRmuAnSlS-TD-13" value="199deb5" style="text;strokeColor=none;fillColor=none;align=center;verticalAlign=middle;whiteSpace=wrap;rounded=0;collapsible=0;fontFamily=Courier New;fontSize=11;" vertex="1" parent="OXiyiAeiQRmuAnSlS-TD-12">
          <mxGeometry width="60" height="18" as="geometry" />
        </mxCell>
        <mxCell id="OXiyiAeiQRmuAnSlS-TD-18" value="" style="edgeStyle=orthogonalEdgeStyle;rounded=0;orthogonalLoop=1;jettySize=auto;entryX=0;entryY=0.5;entryDx=0;entryDy=0;dashed=1;" edge="1" parent="1" source="OXiyiAeiQRmuAnSlS-TD-17" target="0RE_oMzP8fbVJ8ozOd8--1">
          <mxGeometry relative="1" as="geometry" />
        </mxCell>
        <mxCell id="OXiyiAeiQRmuAnSlS-TD-17" value="main" style="rounded=0;whiteSpace=wrap;fillColor=#e1d5e7;strokeColor=#9673a6;" vertex="1" parent="1">
          <mxGeometry x="160" y="215" width="80" height="20" as="geometry" />
        </mxCell>
        <mxCell id="OXiyiAeiQRmuAnSlS-TD-20" value="" style="edgeStyle=orthogonalEdgeStyle;orthogonalLoop=1;jettySize=auto;entryX=0;entryY=0.5;entryDx=0;entryDy=0;jumpStyle=arc;rounded=0;dashed=1;" edge="1" parent="1" source="OXiyiAeiQRmuAnSlS-TD-19" target="OXiyiAeiQRmuAnSlS-TD-8">
          <mxGeometry relative="1" as="geometry" />
        </mxCell>
        <mxCell id="OXiyiAeiQRmuAnSlS-TD-19" value="feature-b" style="rounded=0;whiteSpace=wrap;fillColor=#e1d5e7;strokeColor=#9673a6;" vertex="1" parent="1">
          <mxGeometry x="160" y="295" width="80" height="20" as="geometry" />
        </mxCell>
        <mxCell id="OXiyiAeiQRmuAnSlS-TD-22" value="" style="edgeStyle=orthogonalEdgeStyle;rounded=0;orthogonalLoop=1;jettySize=auto;entryX=0;entryY=0.5;entryDx=0;entryDy=0;jumpStyle=arc;dashed=1;" edge="1" parent="1" source="OXiyiAeiQRmuAnSlS-TD-21" target="OXiyiAeiQRmuAnSlS-TD-10">
          <mxGeometry relative="1" as="geometry" />
        </mxCell>
        <mxCell id="OXiyiAeiQRmuAnSlS-TD-21" value="feature-a" style="rounded=0;whiteSpace=wrap;fillColor=#e1d5e7;strokeColor=#9673a6;" vertex="1" parent="1">
          <mxGeometry x="160" y="375" width="80" height="20" as="geometry" />
        </mxCell>
      </root>
    </mxGraphModel>
  </diagram>
  <diagram name="Rebase" id="YKOuNhXRWJ38Y9mjjgU-">
    <mxGraphModel dx="1084" dy="923" grid="1" gridSize="10" guides="1" tooltips="1" connect="1" arrows="1" fold="1" page="1" pageScale="1" pageWidth="850" pageHeight="1100" math="0" shadow="0">
      <root>
        <mxCell id="346sf7fdbVs9God4Ib-n-0" />
        <mxCell id="346sf7fdbVs9God4Ib-n-3" value="Diagram" parent="346sf7fdbVs9God4Ib-n-0" />
        <mxCell id="TLJfjPiAepK4AV7PV9F1-0" value="change M3" style="rounded=1;whiteSpace=wrap;container=0;dropTarget=0;recursiveResize=0;fillColor=#dae8fc;strokeColor=#6c8ebf;verticalAlign=bottom;spacingBottom=9;fontSize=14;" vertex="1" parent="346sf7fdbVs9God4Ib-n-3">
          <mxGeometry x="280" y="200" width="120" height="50" as="geometry" />
        </mxCell>
        <mxCell id="TLJfjPiAepK4AV7PV9F1-1" value="9736c44" style="text;strokeColor=none;fillColor=none;align=center;verticalAlign=middle;whiteSpace=wrap;rounded=0;collapsible=0;fontFamily=Courier New;fontSize=11;" vertex="1" parent="TLJfjPiAepK4AV7PV9F1-0">
          <mxGeometry width="60" height="20" as="geometry" />
        </mxCell>
        <mxCell id="TLJfjPiAepK4AV7PV9F1-2" value="" style="edgeStyle=orthogonalEdgeStyle;rounded=0;orthogonalLoop=1;jettySize=auto;entryX=0.5;entryY=1;entryDx=0;entryDy=0;" edge="1" parent="346sf7fdbVs9God4Ib-n-3" source="TLJfjPiAepK4AV7PV9F1-4" target="TLJfjPiAepK4AV7PV9F1-0">
          <mxGeometry relative="1" as="geometry" />
        </mxCell>
        <mxCell id="TLJfjPiAepK4AV7PV9F1-3" value="" style="edgeStyle=orthogonalEdgeStyle;orthogonalLoop=1;jettySize=auto;entryX=0.5;entryY=1;entryDx=0;entryDy=0;curved=1;exitX=1;exitY=0;exitDx=0;exitDy=0;" edge="1" parent="346sf7fdbVs9God4Ib-n-3" source="TLJfjPiAepK4AV7PV9F1-5" target="TLJfjPiAepK4AV7PV9F1-15">
          <mxGeometry relative="1" as="geometry" />
        </mxCell>
        <mxCell id="TLJfjPiAepK4AV7PV9F1-4" value="change M2" style="rounded=1;whiteSpace=wrap;container=0;dropTarget=0;recursiveResize=0;fillColor=#dae8fc;strokeColor=#6c8ebf;verticalAlign=bottom;spacingBottom=9;fontSize=14;" vertex="1" parent="346sf7fdbVs9God4Ib-n-3">
          <mxGeometry x="280" y="580" width="120" height="50" as="geometry" />
        </mxCell>
        <mxCell id="TLJfjPiAepK4AV7PV9F1-5" value="4092a25" style="text;strokeColor=none;fillColor=none;align=center;verticalAlign=middle;whiteSpace=wrap;rounded=0;collapsible=0;fontFamily=Courier New;fontSize=11;" vertex="1" parent="TLJfjPiAepK4AV7PV9F1-4">
          <mxGeometry width="60" height="20" as="geometry" />
        </mxCell>
        <mxCell id="TLJfjPiAepK4AV7PV9F1-6" value="" style="edgeStyle=orthogonalEdgeStyle;orthogonalLoop=1;jettySize=auto;entryX=0.5;entryY=1;entryDx=0;entryDy=0;curved=1;" edge="1" parent="346sf7fdbVs9God4Ib-n-3" source="TLJfjPiAepK4AV7PV9F1-7" target="TLJfjPiAepK4AV7PV9F1-4">
          <mxGeometry relative="1" as="geometry" />
        </mxCell>
        <mxCell id="TLJfjPiAepK4AV7PV9F1-7" value="change M1" style="rounded=1;whiteSpace=wrap;container=0;dropTarget=0;recursiveResize=0;fillColor=#dae8fc;strokeColor=#6c8ebf;verticalAlign=bottom;spacingBottom=9;fontSize=14;" vertex="1" parent="346sf7fdbVs9God4Ib-n-3">
          <mxGeometry x="280" y="660" width="120" height="50" as="geometry" />
        </mxCell>
        <mxCell id="TLJfjPiAepK4AV7PV9F1-8" value="e4908ea" style="text;strokeColor=none;fillColor=none;align=center;verticalAlign=middle;whiteSpace=wrap;rounded=0;collapsible=0;fontFamily=Courier New;fontSize=11;" vertex="1" parent="TLJfjPiAepK4AV7PV9F1-7">
          <mxGeometry width="60" height="20" as="geometry" />
        </mxCell>
        <mxCell id="TLJfjPiAepK4AV7PV9F1-9" value="change B1" style="rounded=1;whiteSpace=wrap;container=0;dropTarget=0;recursiveResize=0;fillColor=#dae8fc;strokeColor=#6c8ebf;verticalAlign=bottom;spacingBottom=9;fontSize=14;" vertex="1" parent="346sf7fdbVs9God4Ib-n-3">
          <mxGeometry x="430" y="280" width="120" height="50" as="geometry" />
        </mxCell>
        <mxCell id="TLJfjPiAepK4AV7PV9F1-10" value="5915f8f" style="text;strokeColor=none;fillColor=none;align=center;verticalAlign=middle;whiteSpace=wrap;rounded=0;collapsible=0;fontFamily=Courier New;fontSize=11;" vertex="1" parent="TLJfjPiAepK4AV7PV9F1-9">
          <mxGeometry width="60" height="20" as="geometry" />
        </mxCell>
        <mxCell id="TLJfjPiAepK4AV7PV9F1-11" value="" style="edgeStyle=orthogonalEdgeStyle;orthogonalLoop=1;jettySize=auto;entryX=0.5;entryY=1;entryDx=0;entryDy=0;curved=1;" edge="1" parent="346sf7fdbVs9God4Ib-n-3" source="TLJfjPiAepK4AV7PV9F1-12" target="TLJfjPiAepK4AV7PV9F1-9">
          <mxGeometry relative="1" as="geometry" />
        </mxCell>
        <mxCell id="TLJfjPiAepK4AV7PV9F1-12" value="change A2" style="rounded=1;whiteSpace=wrap;container=0;dropTarget=0;recursiveResize=0;fillColor=#dae8fc;strokeColor=#6c8ebf;verticalAlign=bottom;spacingBottom=9;fontSize=14;" vertex="1" parent="346sf7fdbVs9God4Ib-n-3">
          <mxGeometry x="430" y="360" width="120" height="50" as="geometry" />
        </mxCell>
        <mxCell id="TLJfjPiAepK4AV7PV9F1-13" value="276c0a2" style="text;strokeColor=none;fillColor=none;align=center;verticalAlign=middle;whiteSpace=wrap;rounded=0;collapsible=0;fontFamily=Courier New;fontSize=11;" vertex="1" parent="TLJfjPiAepK4AV7PV9F1-12">
          <mxGeometry y="1" width="60" height="20" as="geometry" />
        </mxCell>
        <mxCell id="TLJfjPiAepK4AV7PV9F1-14" value="" style="edgeStyle=orthogonalEdgeStyle;orthogonalLoop=1;jettySize=auto;entryX=0.5;entryY=1;entryDx=0;entryDy=0;curved=1;" edge="1" parent="346sf7fdbVs9God4Ib-n-3" source="TLJfjPiAepK4AV7PV9F1-15" target="TLJfjPiAepK4AV7PV9F1-12">
          <mxGeometry relative="1" as="geometry" />
        </mxCell>
        <mxCell id="TLJfjPiAepK4AV7PV9F1-15" value="change A1" style="rounded=1;whiteSpace=wrap;container=0;dropTarget=0;recursiveResize=0;fillColor=#dae8fc;strokeColor=#6c8ebf;verticalAlign=bottom;spacingBottom=9;fontSize=14;" vertex="1" parent="346sf7fdbVs9God4Ib-n-3">
          <mxGeometry x="430" y="440" width="120" height="50" as="geometry" />
        </mxCell>
        <mxCell id="TLJfjPiAepK4AV7PV9F1-16" value="199deb5" style="text;strokeColor=none;fillColor=none;align=center;verticalAlign=middle;whiteSpace=wrap;rounded=0;collapsible=0;fontFamily=Courier New;fontSize=11;" vertex="1" parent="TLJfjPiAepK4AV7PV9F1-15">
          <mxGeometry width="60" height="18" as="geometry" />
        </mxCell>
        <mxCell id="TLJfjPiAepK4AV7PV9F1-17" value="" style="edgeStyle=orthogonalEdgeStyle;rounded=0;orthogonalLoop=1;jettySize=auto;entryX=0;entryY=0.5;entryDx=0;entryDy=0;dashed=1;" edge="1" parent="346sf7fdbVs9God4Ib-n-3" source="TLJfjPiAepK4AV7PV9F1-18" target="TLJfjPiAepK4AV7PV9F1-0">
          <mxGeometry relative="1" as="geometry" />
        </mxCell>
        <mxCell id="TLJfjPiAepK4AV7PV9F1-18" value="main" style="rounded=0;whiteSpace=wrap;fillColor=#e1d5e7;strokeColor=#9673a6;" vertex="1" parent="346sf7fdbVs9God4Ib-n-3">
          <mxGeometry x="160" y="215" width="80" height="20" as="geometry" />
        </mxCell>
        <mxCell id="TLJfjPiAepK4AV7PV9F1-19" value="" style="edgeStyle=orthogonalEdgeStyle;orthogonalLoop=1;jettySize=auto;entryX=0;entryY=0.5;entryDx=0;entryDy=0;jumpStyle=arc;rounded=0;dashed=1;" edge="1" parent="346sf7fdbVs9God4Ib-n-3" source="TLJfjPiAepK4AV7PV9F1-20" target="TLJfjPiAepK4AV7PV9F1-9">
          <mxGeometry relative="1" as="geometry" />
        </mxCell>
        <mxCell id="TLJfjPiAepK4AV7PV9F1-20" value="feature-b" style="rounded=0;whiteSpace=wrap;fillColor=#e1d5e7;strokeColor=#9673a6;" vertex="1" parent="346sf7fdbVs9God4Ib-n-3">
          <mxGeometry x="160" y="295" width="80" height="20" as="geometry" />
        </mxCell>
        <mxCell id="TLJfjPiAepK4AV7PV9F1-21" value="" style="edgeStyle=orthogonalEdgeStyle;rounded=0;orthogonalLoop=1;jettySize=auto;entryX=0;entryY=0.5;entryDx=0;entryDy=0;jumpStyle=arc;dashed=1;" edge="1" parent="346sf7fdbVs9God4Ib-n-3" source="TLJfjPiAepK4AV7PV9F1-22" target="TLJfjPiAepK4AV7PV9F1-12">
          <mxGeometry relative="1" as="geometry" />
        </mxCell>
        <mxCell id="TLJfjPiAepK4AV7PV9F1-22" value="feature-a" style="rounded=0;whiteSpace=wrap;fillColor=#e1d5e7;strokeColor=#9673a6;" vertex="1" parent="346sf7fdbVs9God4Ib-n-3">
          <mxGeometry x="160" y="375" width="80" height="20" as="geometry" />
        </mxCell>
        <mxCell id="TLJfjPiAepK4AV7PV9F1-23" value="change M3" style="rounded=1;whiteSpace=wrap;container=0;dropTarget=0;recursiveResize=0;fillColor=#dae8fc;strokeColor=#6c8ebf;verticalAlign=bottom;spacingBottom=9;fontSize=14;" vertex="1" parent="346sf7fdbVs9God4Ib-n-3">
          <mxGeometry x="800" y="500" width="120" height="50" as="geometry" />
        </mxCell>
        <mxCell id="TLJfjPiAepK4AV7PV9F1-24" value="9736c44" style="text;strokeColor=none;fillColor=none;align=center;verticalAlign=middle;whiteSpace=wrap;rounded=0;collapsible=0;fontFamily=Courier New;fontSize=11;" vertex="1" parent="TLJfjPiAepK4AV7PV9F1-23">
          <mxGeometry width="60" height="20" as="geometry" />
        </mxCell>
        <mxCell id="TLJfjPiAepK4AV7PV9F1-25" value="" style="edgeStyle=orthogonalEdgeStyle;rounded=0;orthogonalLoop=1;jettySize=auto;entryX=0.5;entryY=1;entryDx=0;entryDy=0;" edge="1" source="TLJfjPiAepK4AV7PV9F1-27" target="TLJfjPiAepK4AV7PV9F1-23" parent="346sf7fdbVs9God4Ib-n-3">
          <mxGeometry relative="1" as="geometry" />
        </mxCell>
        <mxCell id="TLJfjPiAepK4AV7PV9F1-26" value="" style="edgeStyle=orthogonalEdgeStyle;orthogonalLoop=1;jettySize=auto;entryX=0.5;entryY=1;entryDx=0;entryDy=0;curved=1;exitX=1;exitY=0;exitDx=0;exitDy=0;" edge="1" source="TLJfjPiAepK4AV7PV9F1-24" target="TLJfjPiAepK4AV7PV9F1-38" parent="346sf7fdbVs9God4Ib-n-3">
          <mxGeometry relative="1" as="geometry" />
        </mxCell>
        <mxCell id="TLJfjPiAepK4AV7PV9F1-27" value="change M2" style="rounded=1;whiteSpace=wrap;container=0;dropTarget=0;recursiveResize=0;fillColor=#dae8fc;strokeColor=#6c8ebf;verticalAlign=bottom;spacingBottom=9;fontSize=14;" vertex="1" parent="346sf7fdbVs9God4Ib-n-3">
          <mxGeometry x="800" y="580" width="120" height="50" as="geometry" />
        </mxCell>
        <mxCell id="TLJfjPiAepK4AV7PV9F1-28" value="4092a25" style="text;strokeColor=none;fillColor=none;align=center;verticalAlign=middle;whiteSpace=wrap;rounded=0;collapsible=0;fontFamily=Courier New;fontSize=11;" vertex="1" parent="TLJfjPiAepK4AV7PV9F1-27">
          <mxGeometry width="60" height="20" as="geometry" />
        </mxCell>
        <mxCell id="TLJfjPiAepK4AV7PV9F1-29" value="" style="edgeStyle=orthogonalEdgeStyle;orthogonalLoop=1;jettySize=auto;entryX=0.5;entryY=1;entryDx=0;entryDy=0;curved=1;" edge="1" source="TLJfjPiAepK4AV7PV9F1-30" target="TLJfjPiAepK4AV7PV9F1-27" parent="346sf7fdbVs9God4Ib-n-3">
          <mxGeometry relative="1" as="geometry" />
        </mxCell>
        <mxCell id="TLJfjPiAepK4AV7PV9F1-30" value="change M1" style="rounded=1;whiteSpace=wrap;container=0;dropTarget=0;recursiveResize=0;fillColor=#dae8fc;strokeColor=#6c8ebf;verticalAlign=bottom;spacingBottom=9;fontSize=14;" vertex="1" parent="346sf7fdbVs9God4Ib-n-3">
          <mxGeometry x="800" y="660" width="120" height="50" as="geometry" />
        </mxCell>
        <mxCell id="TLJfjPiAepK4AV7PV9F1-31" value="e4908ea" style="text;strokeColor=none;fillColor=none;align=center;verticalAlign=middle;whiteSpace=wrap;rounded=0;collapsible=0;fontFamily=Courier New;fontSize=11;" vertex="1" parent="TLJfjPiAepK4AV7PV9F1-30">
          <mxGeometry width="60" height="20" as="geometry" />
        </mxCell>
        <mxCell id="TLJfjPiAepK4AV7PV9F1-32" value="change B1" style="rounded=1;whiteSpace=wrap;container=0;dropTarget=0;recursiveResize=0;fillColor=#dae8fc;strokeColor=#6c8ebf;verticalAlign=bottom;spacingBottom=9;fontSize=14;" vertex="1" parent="346sf7fdbVs9God4Ib-n-3">
          <mxGeometry x="950" y="200" width="120" height="50" as="geometry" />
        </mxCell>
        <mxCell id="TLJfjPiAepK4AV7PV9F1-33" value="dd4e0ce" style="text;strokeColor=none;fillColor=none;align=center;verticalAlign=middle;whiteSpace=wrap;rounded=0;collapsible=0;fontFamily=Courier New;fontSize=11;" vertex="1" parent="TLJfjPiAepK4AV7PV9F1-32">
          <mxGeometry width="60" height="20" as="geometry" />
        </mxCell>
        <mxCell id="TLJfjPiAepK4AV7PV9F1-34" value="" style="edgeStyle=orthogonalEdgeStyle;orthogonalLoop=1;jettySize=auto;entryX=0.5;entryY=1;entryDx=0;entryDy=0;curved=1;" edge="1" source="TLJfjPiAepK4AV7PV9F1-35" target="TLJfjPiAepK4AV7PV9F1-32" parent="346sf7fdbVs9God4Ib-n-3">
          <mxGeometry relative="1" as="geometry" />
        </mxCell>
        <mxCell id="TLJfjPiAepK4AV7PV9F1-35" value="change A2" style="rounded=1;whiteSpace=wrap;container=0;dropTarget=0;recursiveResize=0;fillColor=#dae8fc;strokeColor=#6c8ebf;verticalAlign=bottom;spacingBottom=9;fontSize=14;" vertex="1" parent="346sf7fdbVs9God4Ib-n-3">
          <mxGeometry x="950" y="280" width="120" height="50" as="geometry" />
        </mxCell>
        <mxCell id="TLJfjPiAepK4AV7PV9F1-36" value="312640c" style="text;strokeColor=none;fillColor=none;align=center;verticalAlign=middle;whiteSpace=wrap;rounded=0;collapsible=0;fontFamily=Courier New;fontSize=11;" vertex="1" parent="TLJfjPiAepK4AV7PV9F1-35">
          <mxGeometry y="1" width="60" height="20" as="geometry" />
        </mxCell>
        <mxCell id="TLJfjPiAepK4AV7PV9F1-37" value="" style="edgeStyle=orthogonalEdgeStyle;orthogonalLoop=1;jettySize=auto;entryX=0.5;entryY=1;entryDx=0;entryDy=0;curved=1;" edge="1" source="TLJfjPiAepK4AV7PV9F1-38" target="TLJfjPiAepK4AV7PV9F1-35" parent="346sf7fdbVs9God4Ib-n-3">
          <mxGeometry relative="1" as="geometry" />
        </mxCell>
        <mxCell id="TLJfjPiAepK4AV7PV9F1-38" value="change A1" style="rounded=1;whiteSpace=wrap;container=0;dropTarget=0;recursiveResize=0;fillColor=#dae8fc;strokeColor=#6c8ebf;verticalAlign=bottom;spacingBottom=9;fontSize=14;" vertex="1" parent="346sf7fdbVs9God4Ib-n-3">
          <mxGeometry x="950" y="360" width="120" height="50" as="geometry" />
        </mxCell>
        <mxCell id="TLJfjPiAepK4AV7PV9F1-39" value="49d3c47" style="text;strokeColor=none;fillColor=none;align=center;verticalAlign=middle;whiteSpace=wrap;rounded=0;collapsible=0;fontFamily=Courier New;fontSize=11;" vertex="1" parent="TLJfjPiAepK4AV7PV9F1-38">
          <mxGeometry width="60" height="18" as="geometry" />
        </mxCell>
        <mxCell id="TLJfjPiAepK4AV7PV9F1-40" value="" style="edgeStyle=orthogonalEdgeStyle;rounded=0;orthogonalLoop=1;jettySize=auto;entryX=0;entryY=0.5;entryDx=0;entryDy=0;dashed=1;" edge="1" source="TLJfjPiAepK4AV7PV9F1-41" target="TLJfjPiAepK4AV7PV9F1-23" parent="346sf7fdbVs9God4Ib-n-3">
          <mxGeometry relative="1" as="geometry" />
        </mxCell>
        <mxCell id="TLJfjPiAepK4AV7PV9F1-41" value="main" style="rounded=0;whiteSpace=wrap;fillColor=#e1d5e7;strokeColor=#9673a6;" vertex="1" parent="346sf7fdbVs9God4Ib-n-3">
          <mxGeometry x="680" y="515" width="80" height="20" as="geometry" />
        </mxCell>
        <mxCell id="TLJfjPiAepK4AV7PV9F1-42" value="" style="edgeStyle=orthogonalEdgeStyle;orthogonalLoop=1;jettySize=auto;entryX=0;entryY=0.5;entryDx=0;entryDy=0;jumpStyle=arc;rounded=0;dashed=1;" edge="1" source="TLJfjPiAepK4AV7PV9F1-43" target="TLJfjPiAepK4AV7PV9F1-32" parent="346sf7fdbVs9God4Ib-n-3">
          <mxGeometry relative="1" as="geometry" />
        </mxCell>
        <mxCell id="TLJfjPiAepK4AV7PV9F1-43" value="feature-b" style="rounded=0;whiteSpace=wrap;fillColor=#e1d5e7;strokeColor=#9673a6;" vertex="1" parent="346sf7fdbVs9God4Ib-n-3">
          <mxGeometry x="680" y="215" width="80" height="20" as="geometry" />
        </mxCell>
        <mxCell id="TLJfjPiAepK4AV7PV9F1-44" value="" style="edgeStyle=orthogonalEdgeStyle;rounded=0;orthogonalLoop=1;jettySize=auto;entryX=0;entryY=0.5;entryDx=0;entryDy=0;jumpStyle=arc;dashed=1;" edge="1" source="TLJfjPiAepK4AV7PV9F1-45" target="TLJfjPiAepK4AV7PV9F1-35" parent="346sf7fdbVs9God4Ib-n-3">
          <mxGeometry relative="1" as="geometry" />
        </mxCell>
        <mxCell id="TLJfjPiAepK4AV7PV9F1-45" value="feature-a" style="rounded=0;whiteSpace=wrap;fillColor=#e1d5e7;strokeColor=#9673a6;" vertex="1" parent="346sf7fdbVs9God4Ib-n-3">
          <mxGeometry x="680" y="295" width="80" height="20" as="geometry" />
        </mxCell>
        <mxCell id="TLJfjPiAepK4AV7PV9F1-47" value="" style="shape=flexArrow;endArrow=classic;html=1;rounded=0;fillColor=#f84e28;strokeColor=none;" edge="1" parent="346sf7fdbVs9God4Ib-n-3">
          <mxGeometry width="50" height="50" relative="1" as="geometry">
            <mxPoint x="590" y="384.29" as="sourcePoint" />
            <mxPoint x="650" y="384.29" as="targetPoint" />
          </mxGeometry>
        </mxCell>
        <mxCell id="TLJfjPiAepK4AV7PV9F1-48" value="Before" style="text;html=1;strokeColor=none;fillColor=none;align=center;verticalAlign=middle;whiteSpace=wrap;rounded=0;fontSize=18;fontStyle=1" vertex="1" parent="346sf7fdbVs9God4Ib-n-3">
          <mxGeometry x="295" y="130" width="90" height="30" as="geometry" />
        </mxCell>
        <mxCell id="TLJfjPiAepK4AV7PV9F1-49" value="After" style="text;html=1;strokeColor=none;fillColor=none;align=center;verticalAlign=middle;whiteSpace=wrap;rounded=0;fontSize=18;fontStyle=1" vertex="1" parent="346sf7fdbVs9God4Ib-n-3">
          <mxGeometry x="820" y="130" width="80" height="30" as="geometry" />
        </mxCell>
      </root>
    </mxGraphModel>
  </diagram>
  <diagram name="Fixup" id="T5kgvCaI9plbwsRPEj_9">
    <mxGraphModel dx="1084" dy="923" grid="1" gridSize="10" guides="1" tooltips="1" connect="1" arrows="1" fold="1" page="1" pageScale="1" pageWidth="850" pageHeight="1100" math="0" shadow="0">
      <root>
        <mxCell id="Nih0V7-3-L7zrvtYezML-0" />
        <mxCell id="Nih0V7-3-L7zrvtYezML-1" value="Diagram" parent="Nih0V7-3-L7zrvtYezML-0" />
        <mxCell id="Nih0V7-3-L7zrvtYezML-2" value="change M3" style="rounded=1;whiteSpace=wrap;container=0;dropTarget=0;recursiveResize=0;fillColor=#dae8fc;strokeColor=#6c8ebf;verticalAlign=bottom;spacingBottom=9;fontSize=14;" vertex="1" parent="Nih0V7-3-L7zrvtYezML-1">
          <mxGeometry x="280" y="200" width="120" height="50" as="geometry" />
        </mxCell>
        <mxCell id="Nih0V7-3-L7zrvtYezML-3" value="9736c44" style="text;strokeColor=none;fillColor=none;align=center;verticalAlign=middle;whiteSpace=wrap;rounded=0;collapsible=0;fontFamily=Courier New;fontSize=11;" vertex="1" parent="Nih0V7-3-L7zrvtYezML-2">
          <mxGeometry width="60" height="20" as="geometry" />
        </mxCell>
        <mxCell id="Nih0V7-3-L7zrvtYezML-4" value="" style="edgeStyle=orthogonalEdgeStyle;rounded=0;orthogonalLoop=1;jettySize=auto;entryX=0.5;entryY=1;entryDx=0;entryDy=0;" edge="1" parent="Nih0V7-3-L7zrvtYezML-1" source="Nih0V7-3-L7zrvtYezML-6" target="Nih0V7-3-L7zrvtYezML-2">
          <mxGeometry relative="1" as="geometry" />
        </mxCell>
        <mxCell id="Nih0V7-3-L7zrvtYezML-5" value="" style="edgeStyle=orthogonalEdgeStyle;orthogonalLoop=1;jettySize=auto;entryX=0.5;entryY=1;entryDx=0;entryDy=0;curved=1;exitX=1;exitY=0;exitDx=0;exitDy=0;" edge="1" parent="Nih0V7-3-L7zrvtYezML-1" source="Nih0V7-3-L7zrvtYezML-7" target="Nih0V7-3-L7zrvtYezML-17">
          <mxGeometry relative="1" as="geometry" />
        </mxCell>
        <mxCell id="Nih0V7-3-L7zrvtYezML-6" value="change M2" style="rounded=1;whiteSpace=wrap;container=0;dropTarget=0;recursiveResize=0;fillColor=#dae8fc;strokeColor=#6c8ebf;verticalAlign=bottom;spacingBottom=9;fontSize=14;" vertex="1" parent="Nih0V7-3-L7zrvtYezML-1">
          <mxGeometry x="280" y="580" width="120" height="50" as="geometry" />
        </mxCell>
        <mxCell id="Nih0V7-3-L7zrvtYezML-7" value="4092a25" style="text;strokeColor=none;fillColor=none;align=center;verticalAlign=middle;whiteSpace=wrap;rounded=0;collapsible=0;fontFamily=Courier New;fontSize=11;" vertex="1" parent="Nih0V7-3-L7zrvtYezML-6">
          <mxGeometry width="60" height="20" as="geometry" />
        </mxCell>
        <mxCell id="Nih0V7-3-L7zrvtYezML-8" value="" style="edgeStyle=orthogonalEdgeStyle;orthogonalLoop=1;jettySize=auto;entryX=0.5;entryY=1;entryDx=0;entryDy=0;curved=1;" edge="1" parent="Nih0V7-3-L7zrvtYezML-1" source="Nih0V7-3-L7zrvtYezML-9" target="Nih0V7-3-L7zrvtYezML-6">
          <mxGeometry relative="1" as="geometry" />
        </mxCell>
        <mxCell id="Nih0V7-3-L7zrvtYezML-9" value="change M1" style="rounded=1;whiteSpace=wrap;container=0;dropTarget=0;recursiveResize=0;fillColor=#dae8fc;strokeColor=#6c8ebf;verticalAlign=bottom;spacingBottom=9;fontSize=14;" vertex="1" parent="Nih0V7-3-L7zrvtYezML-1">
          <mxGeometry x="280" y="660" width="120" height="50" as="geometry" />
        </mxCell>
        <mxCell id="Nih0V7-3-L7zrvtYezML-10" value="e4908ea" style="text;strokeColor=none;fillColor=none;align=center;verticalAlign=middle;whiteSpace=wrap;rounded=0;collapsible=0;fontFamily=Courier New;fontSize=11;" vertex="1" parent="Nih0V7-3-L7zrvtYezML-9">
          <mxGeometry width="60" height="20" as="geometry" />
        </mxCell>
        <mxCell id="Nih0V7-3-L7zrvtYezML-11" value="change B1" style="rounded=1;whiteSpace=wrap;container=0;dropTarget=0;recursiveResize=0;fillColor=#dae8fc;strokeColor=#6c8ebf;verticalAlign=bottom;spacingBottom=9;fontSize=14;" vertex="1" parent="Nih0V7-3-L7zrvtYezML-1">
          <mxGeometry x="430" y="280" width="120" height="50" as="geometry" />
        </mxCell>
        <mxCell id="Nih0V7-3-L7zrvtYezML-12" value="5915f8f" style="text;strokeColor=none;fillColor=none;align=center;verticalAlign=middle;whiteSpace=wrap;rounded=0;collapsible=0;fontFamily=Courier New;fontSize=11;" vertex="1" parent="Nih0V7-3-L7zrvtYezML-11">
          <mxGeometry width="60" height="20" as="geometry" />
        </mxCell>
        <mxCell id="Nih0V7-3-L7zrvtYezML-13" value="" style="edgeStyle=orthogonalEdgeStyle;orthogonalLoop=1;jettySize=auto;entryX=0.5;entryY=1;entryDx=0;entryDy=0;curved=1;" edge="1" parent="Nih0V7-3-L7zrvtYezML-1" source="Nih0V7-3-L7zrvtYezML-14" target="Nih0V7-3-L7zrvtYezML-11">
          <mxGeometry relative="1" as="geometry" />
        </mxCell>
        <mxCell id="Nih0V7-3-L7zrvtYezML-14" value="change A2" style="rounded=1;whiteSpace=wrap;container=0;dropTarget=0;recursiveResize=0;fillColor=#dae8fc;strokeColor=#6c8ebf;verticalAlign=bottom;spacingBottom=9;fontSize=14;" vertex="1" parent="Nih0V7-3-L7zrvtYezML-1">
          <mxGeometry x="430" y="360" width="120" height="50" as="geometry" />
        </mxCell>
        <mxCell id="Nih0V7-3-L7zrvtYezML-15" value="276c0a2" style="text;strokeColor=none;fillColor=none;align=center;verticalAlign=middle;whiteSpace=wrap;rounded=0;collapsible=0;fontFamily=Courier New;fontSize=11;" vertex="1" parent="Nih0V7-3-L7zrvtYezML-14">
          <mxGeometry y="1" width="60" height="20" as="geometry" />
        </mxCell>
        <mxCell id="Nih0V7-3-L7zrvtYezML-16" value="" style="edgeStyle=orthogonalEdgeStyle;orthogonalLoop=1;jettySize=auto;entryX=0.5;entryY=1;entryDx=0;entryDy=0;curved=1;" edge="1" parent="Nih0V7-3-L7zrvtYezML-1" source="Nih0V7-3-L7zrvtYezML-17" target="Nih0V7-3-L7zrvtYezML-14">
          <mxGeometry relative="1" as="geometry" />
        </mxCell>
        <mxCell id="Nih0V7-3-L7zrvtYezML-17" value="change A1" style="rounded=1;whiteSpace=wrap;container=0;dropTarget=0;recursiveResize=0;fillColor=#dae8fc;strokeColor=#6c8ebf;verticalAlign=bottom;spacingBottom=9;fontSize=14;" vertex="1" parent="Nih0V7-3-L7zrvtYezML-1">
          <mxGeometry x="430" y="440" width="120" height="50" as="geometry" />
        </mxCell>
        <mxCell id="Nih0V7-3-L7zrvtYezML-18" value="199deb5" style="text;strokeColor=none;fillColor=none;align=center;verticalAlign=middle;whiteSpace=wrap;rounded=0;collapsible=0;fontFamily=Courier New;fontSize=11;" vertex="1" parent="Nih0V7-3-L7zrvtYezML-17">
          <mxGeometry width="60" height="18" as="geometry" />
        </mxCell>
        <mxCell id="Nih0V7-3-L7zrvtYezML-19" value="" style="edgeStyle=orthogonalEdgeStyle;rounded=0;orthogonalLoop=1;jettySize=auto;entryX=0;entryY=0.5;entryDx=0;entryDy=0;dashed=1;" edge="1" parent="Nih0V7-3-L7zrvtYezML-1" source="Nih0V7-3-L7zrvtYezML-20" target="Nih0V7-3-L7zrvtYezML-2">
          <mxGeometry relative="1" as="geometry" />
        </mxCell>
        <mxCell id="Nih0V7-3-L7zrvtYezML-20" value="main" style="rounded=0;whiteSpace=wrap;fillColor=#e1d5e7;strokeColor=#9673a6;" vertex="1" parent="Nih0V7-3-L7zrvtYezML-1">
          <mxGeometry x="160" y="215" width="80" height="20" as="geometry" />
        </mxCell>
        <mxCell id="Nih0V7-3-L7zrvtYezML-21" value="" style="edgeStyle=orthogonalEdgeStyle;orthogonalLoop=1;jettySize=auto;entryX=0;entryY=0.5;entryDx=0;entryDy=0;jumpStyle=arc;rounded=0;dashed=1;" edge="1" parent="Nih0V7-3-L7zrvtYezML-1" source="Nih0V7-3-L7zrvtYezML-22" target="Nih0V7-3-L7zrvtYezML-11">
          <mxGeometry relative="1" as="geometry" />
        </mxCell>
        <mxCell id="Nih0V7-3-L7zrvtYezML-22" value="feature-b" style="rounded=0;whiteSpace=wrap;fillColor=#e1d5e7;strokeColor=#9673a6;" vertex="1" parent="Nih0V7-3-L7zrvtYezML-1">
          <mxGeometry x="160" y="295" width="80" height="20" as="geometry" />
        </mxCell>
        <mxCell id="Nih0V7-3-L7zrvtYezML-23" value="" style="edgeStyle=orthogonalEdgeStyle;rounded=0;orthogonalLoop=1;jettySize=auto;entryX=0;entryY=0.5;entryDx=0;entryDy=0;jumpStyle=arc;dashed=1;" edge="1" parent="Nih0V7-3-L7zrvtYezML-1" source="Nih0V7-3-L7zrvtYezML-24" target="Nih0V7-3-L7zrvtYezML-14">
          <mxGeometry relative="1" as="geometry" />
        </mxCell>
        <mxCell id="Nih0V7-3-L7zrvtYezML-24" value="feature-a" style="rounded=0;whiteSpace=wrap;fillColor=#e1d5e7;strokeColor=#9673a6;" vertex="1" parent="Nih0V7-3-L7zrvtYezML-1">
          <mxGeometry x="160" y="375" width="80" height="20" as="geometry" />
        </mxCell>
        <mxCell id="Nih0V7-3-L7zrvtYezML-48" value="" style="shape=flexArrow;endArrow=classic;html=1;rounded=0;fillColor=#f84e28;strokeColor=none;" edge="1" parent="Nih0V7-3-L7zrvtYezML-1">
          <mxGeometry width="50" height="50" relative="1" as="geometry">
            <mxPoint x="590" y="384.29" as="sourcePoint" />
            <mxPoint x="650" y="384.29" as="targetPoint" />
          </mxGeometry>
        </mxCell>
        <mxCell id="Nih0V7-3-L7zrvtYezML-49" value="Before" style="text;html=1;strokeColor=none;fillColor=none;align=center;verticalAlign=middle;whiteSpace=wrap;rounded=0;fontSize=18;fontStyle=1" vertex="1" parent="Nih0V7-3-L7zrvtYezML-1">
          <mxGeometry x="295" y="130" width="90" height="30" as="geometry" />
        </mxCell>
        <mxCell id="Nih0V7-3-L7zrvtYezML-50" value="After" style="text;html=1;strokeColor=none;fillColor=none;align=center;verticalAlign=middle;whiteSpace=wrap;rounded=0;fontSize=18;fontStyle=1" vertex="1" parent="Nih0V7-3-L7zrvtYezML-1">
          <mxGeometry x="820" y="130" width="80" height="30" as="geometry" />
        </mxCell>
        <mxCell id="bpfZH0pnMFVgt94cLIwW-0" value="change M3" style="rounded=1;whiteSpace=wrap;container=0;dropTarget=0;recursiveResize=0;fillColor=#dae8fc;strokeColor=#6c8ebf;verticalAlign=bottom;spacingBottom=9;fontSize=14;" vertex="1" parent="Nih0V7-3-L7zrvtYezML-1">
          <mxGeometry x="800" y="200" width="120" height="50" as="geometry" />
        </mxCell>
        <mxCell id="bpfZH0pnMFVgt94cLIwW-1" value="9736c44" style="text;strokeColor=none;fillColor=none;align=center;verticalAlign=middle;whiteSpace=wrap;rounded=0;collapsible=0;fontFamily=Courier New;fontSize=11;" vertex="1" parent="bpfZH0pnMFVgt94cLIwW-0">
          <mxGeometry width="60" height="20" as="geometry" />
        </mxCell>
        <mxCell id="bpfZH0pnMFVgt94cLIwW-2" value="" style="edgeStyle=orthogonalEdgeStyle;rounded=0;orthogonalLoop=1;jettySize=auto;entryX=0.5;entryY=1;entryDx=0;entryDy=0;" edge="1" source="bpfZH0pnMFVgt94cLIwW-4" target="bpfZH0pnMFVgt94cLIwW-0" parent="Nih0V7-3-L7zrvtYezML-1">
          <mxGeometry relative="1" as="geometry" />
        </mxCell>
        <mxCell id="bpfZH0pnMFVgt94cLIwW-3" value="" style="edgeStyle=orthogonalEdgeStyle;orthogonalLoop=1;jettySize=auto;entryX=0.5;entryY=1;entryDx=0;entryDy=0;curved=1;exitX=1;exitY=0;exitDx=0;exitDy=0;" edge="1" source="bpfZH0pnMFVgt94cLIwW-5" target="bpfZH0pnMFVgt94cLIwW-13" parent="Nih0V7-3-L7zrvtYezML-1">
          <mxGeometry relative="1" as="geometry" />
        </mxCell>
        <mxCell id="bpfZH0pnMFVgt94cLIwW-4" value="change M2" style="rounded=1;whiteSpace=wrap;container=0;dropTarget=0;recursiveResize=0;fillColor=#dae8fc;strokeColor=#6c8ebf;verticalAlign=bottom;spacingBottom=9;fontSize=14;" vertex="1" parent="Nih0V7-3-L7zrvtYezML-1">
          <mxGeometry x="800" y="580" width="120" height="50" as="geometry" />
        </mxCell>
        <mxCell id="bpfZH0pnMFVgt94cLIwW-5" value="4092a25" style="text;strokeColor=none;fillColor=none;align=center;verticalAlign=middle;whiteSpace=wrap;rounded=0;collapsible=0;fontFamily=Courier New;fontSize=11;" vertex="1" parent="bpfZH0pnMFVgt94cLIwW-4">
          <mxGeometry width="60" height="20" as="geometry" />
        </mxCell>
        <mxCell id="bpfZH0pnMFVgt94cLIwW-6" value="" style="edgeStyle=orthogonalEdgeStyle;orthogonalLoop=1;jettySize=auto;entryX=0.5;entryY=1;entryDx=0;entryDy=0;curved=1;" edge="1" source="bpfZH0pnMFVgt94cLIwW-21" target="bpfZH0pnMFVgt94cLIwW-4" parent="Nih0V7-3-L7zrvtYezML-1">
          <mxGeometry relative="1" as="geometry" />
        </mxCell>
        <mxCell id="bpfZH0pnMFVgt94cLIwW-7" value="change B1" style="rounded=1;whiteSpace=wrap;container=0;dropTarget=0;recursiveResize=0;fillColor=#dae8fc;strokeColor=#6c8ebf;verticalAlign=bottom;spacingBottom=9;fontSize=14;" vertex="1" parent="Nih0V7-3-L7zrvtYezML-1">
          <mxGeometry x="950" y="280" width="120" height="50" as="geometry" />
        </mxCell>
        <mxCell id="bpfZH0pnMFVgt94cLIwW-8" value="022ab4f" style="text;strokeColor=none;fillColor=none;align=center;verticalAlign=middle;whiteSpace=wrap;rounded=0;collapsible=0;fontFamily=Courier New;fontSize=11;" vertex="1" parent="bpfZH0pnMFVgt94cLIwW-7">
          <mxGeometry width="60" height="20" as="geometry" />
        </mxCell>
        <mxCell id="bpfZH0pnMFVgt94cLIwW-9" value="" style="edgeStyle=orthogonalEdgeStyle;orthogonalLoop=1;jettySize=auto;entryX=0.5;entryY=1;entryDx=0;entryDy=0;curved=1;" edge="1" source="bpfZH0pnMFVgt94cLIwW-10" target="bpfZH0pnMFVgt94cLIwW-7" parent="Nih0V7-3-L7zrvtYezML-1">
          <mxGeometry relative="1" as="geometry" />
        </mxCell>
        <mxCell id="bpfZH0pnMFVgt94cLIwW-10" value="change A2" style="rounded=1;whiteSpace=wrap;container=0;dropTarget=0;recursiveResize=0;fillColor=#dae8fc;strokeColor=#6c8ebf;verticalAlign=bottom;spacingBottom=9;fontSize=14;" vertex="1" parent="Nih0V7-3-L7zrvtYezML-1">
          <mxGeometry x="950" y="360" width="120" height="50" as="geometry" />
        </mxCell>
        <mxCell id="bpfZH0pnMFVgt94cLIwW-11" value="c17b2d9" style="text;strokeColor=none;fillColor=none;align=center;verticalAlign=middle;whiteSpace=wrap;rounded=0;collapsible=0;fontFamily=Courier New;fontSize=11;" vertex="1" parent="bpfZH0pnMFVgt94cLIwW-10">
          <mxGeometry y="1" width="60" height="20" as="geometry" />
        </mxCell>
        <mxCell id="bpfZH0pnMFVgt94cLIwW-12" value="" style="edgeStyle=orthogonalEdgeStyle;orthogonalLoop=1;jettySize=auto;entryX=0.5;entryY=1;entryDx=0;entryDy=0;curved=1;" edge="1" source="bpfZH0pnMFVgt94cLIwW-13" target="bpfZH0pnMFVgt94cLIwW-10" parent="Nih0V7-3-L7zrvtYezML-1">
          <mxGeometry relative="1" as="geometry" />
        </mxCell>
        <mxCell id="bpfZH0pnMFVgt94cLIwW-13" value="change A1" style="rounded=1;whiteSpace=wrap;container=0;dropTarget=0;recursiveResize=0;fillColor=#dae8fc;strokeColor=#6c8ebf;verticalAlign=bottom;spacingBottom=9;fontSize=14;" vertex="1" parent="Nih0V7-3-L7zrvtYezML-1">
          <mxGeometry x="950" y="440" width="120" height="50" as="geometry" />
        </mxCell>
        <mxCell id="bpfZH0pnMFVgt94cLIwW-14" value="5237e4c" style="text;strokeColor=none;fillColor=none;align=center;verticalAlign=middle;whiteSpace=wrap;rounded=0;collapsible=0;fontFamily=Courier New;fontSize=11;" vertex="1" parent="bpfZH0pnMFVgt94cLIwW-13">
          <mxGeometry width="60" height="18" as="geometry" />
        </mxCell>
        <mxCell id="bpfZH0pnMFVgt94cLIwW-15" value="" style="edgeStyle=orthogonalEdgeStyle;rounded=0;orthogonalLoop=1;jettySize=auto;entryX=0;entryY=0.5;entryDx=0;entryDy=0;dashed=1;" edge="1" source="bpfZH0pnMFVgt94cLIwW-16" target="bpfZH0pnMFVgt94cLIwW-0" parent="Nih0V7-3-L7zrvtYezML-1">
          <mxGeometry relative="1" as="geometry" />
        </mxCell>
        <mxCell id="bpfZH0pnMFVgt94cLIwW-16" value="main" style="rounded=0;whiteSpace=wrap;fillColor=#e1d5e7;strokeColor=#9673a6;" vertex="1" parent="Nih0V7-3-L7zrvtYezML-1">
          <mxGeometry x="680" y="215" width="80" height="20" as="geometry" />
        </mxCell>
        <mxCell id="bpfZH0pnMFVgt94cLIwW-17" value="" style="edgeStyle=orthogonalEdgeStyle;orthogonalLoop=1;jettySize=auto;entryX=0;entryY=0.5;entryDx=0;entryDy=0;jumpStyle=arc;rounded=0;dashed=1;" edge="1" source="bpfZH0pnMFVgt94cLIwW-18" target="bpfZH0pnMFVgt94cLIwW-7" parent="Nih0V7-3-L7zrvtYezML-1">
          <mxGeometry relative="1" as="geometry" />
        </mxCell>
        <mxCell id="bpfZH0pnMFVgt94cLIwW-18" value="feature-b" style="rounded=0;whiteSpace=wrap;fillColor=#e1d5e7;strokeColor=#9673a6;" vertex="1" parent="Nih0V7-3-L7zrvtYezML-1">
          <mxGeometry x="680" y="295" width="80" height="20" as="geometry" />
        </mxCell>
        <mxCell id="bpfZH0pnMFVgt94cLIwW-19" value="" style="edgeStyle=orthogonalEdgeStyle;rounded=0;orthogonalLoop=1;jettySize=auto;entryX=0;entryY=0.5;entryDx=0;entryDy=0;jumpStyle=arc;dashed=1;" edge="1" source="bpfZH0pnMFVgt94cLIwW-20" target="bpfZH0pnMFVgt94cLIwW-10" parent="Nih0V7-3-L7zrvtYezML-1">
          <mxGeometry relative="1" as="geometry" />
        </mxCell>
        <mxCell id="bpfZH0pnMFVgt94cLIwW-20" value="feature-a" style="rounded=0;whiteSpace=wrap;fillColor=#e1d5e7;strokeColor=#9673a6;" vertex="1" parent="Nih0V7-3-L7zrvtYezML-1">
          <mxGeometry x="680" y="375" width="80" height="20" as="geometry" />
        </mxCell>
        <mxCell id="bpfZH0pnMFVgt94cLIwW-21" value="change M1" style="rounded=1;whiteSpace=wrap;container=0;dropTarget=0;recursiveResize=0;fillColor=#dae8fc;strokeColor=#6c8ebf;verticalAlign=bottom;spacingBottom=9;fontSize=14;" vertex="1" parent="Nih0V7-3-L7zrvtYezML-1">
          <mxGeometry x="800" y="660" width="120" height="50" as="geometry" />
        </mxCell>
        <mxCell id="bpfZH0pnMFVgt94cLIwW-22" value="e4908ea" style="text;strokeColor=none;fillColor=none;align=center;verticalAlign=middle;whiteSpace=wrap;rounded=0;collapsible=0;fontFamily=Courier New;fontSize=11;" vertex="1" parent="bpfZH0pnMFVgt94cLIwW-21">
          <mxGeometry width="60" height="20" as="geometry" />
        </mxCell>
      </root>
    </mxGraphModel>
  </diagram>
</mxfile>
